<svg width="37" height="37" viewBox="0 0 37 37" fill="none" xmlns="http://www.w3.org/2000/svg">
<path d="M31.5856 1.63947H5.41438C3.35365 1.63947 1.6676 3.32552 1.6676 5.38625V31.6137C1.6676 33.6744 3.35365 35.3605 5.41438 35.3605H31.5856C33.6464 35.3605 35.3324 33.6744 35.3324 31.6137V5.38625C35.3324 4.39254 34.9377 3.43953 34.235 2.73687C33.5324 2.03421 32.5794 1.63947 31.5856 1.63947ZM28.607 27.8295C28.5508 27.8482 28.4758 27.8669 28.4196 27.8669H24.1858C24.0024 27.87 23.8223 27.8182 23.6687 27.718C23.5151 27.6178 23.3951 27.4739 23.324 27.3049L18.7155 16.5517C18.678 16.4392 18.5656 16.383 18.4719 16.4205C18.442 16.4318 18.4148 16.4493 18.3922 16.4719C18.3696 16.4945 18.352 16.5217 18.3408 16.5517L15.4745 23.3895C15.4183 23.5207 15.4745 23.6518 15.6056 23.708C15.6431 23.7267 15.6618 23.7267 15.6993 23.7267H18.8466C19.0339 23.7267 19.2213 23.8391 19.2962 24.0265L20.6825 27.0988C20.8137 27.3798 20.6638 27.7171 20.3828 27.8482C20.2704 27.8482 20.1954 27.8669 20.1205 27.8669H8.65535C8.37434 27.8669 8.1308 27.6234 8.1308 27.3424C8.1308 27.2674 8.14953 27.2112 8.16827 27.1363L15.4745 9.75124C15.6244 9.37657 15.999 9.13303 16.3924 9.13303H20.6076C21.0197 9.13303 21.3757 9.37657 21.5255 9.75124L28.8692 27.1363C29.0004 27.3986 28.888 27.7171 28.607 27.8295Z" fill="#EF1616"/>
</svg>
