<svg width="24" height="24" viewBox="0 0 24 24" fill="none" xmlns="http://www.w3.org/2000/svg">
<path d="M17.173 7.97377V4.6698C17.173 3.01295 15.8298 1.6698 14.173 1.6698H8.15363C6.49677 1.6698 5.15363 3.01295 5.15363 4.6698V19.3303C5.15363 20.9871 6.49677 22.3303 8.15363 22.3303H14.173C15.8298 22.3303 17.173 20.9871 17.173 19.3303V17.1851" stroke="#00E377" stroke-width="1.5"/>
<path d="M8.66888 19.4705H13.6578" stroke="#00E377" stroke-width="1.5" stroke-linecap="round"/>
<path d="M9.08887 4.37622H9.63757" stroke="#00E377" stroke-width="1.5" stroke-linecap="round"/>
<path d="M11.4841 4.37622L13.2378 4.37622" stroke="#00E377" stroke-width="1.5" stroke-linecap="round"/>
<circle cx="16.8976" cy="12.5503" r="4.53667" stroke="#00E377" stroke-width="1.5"/>
<path d="M18.4388 11.6163C18.4388 11.0604 17.7489 10.6103 16.8975 10.6103C16.0465 10.6103 15.3563 11.0606 15.3563 11.6163C15.3563 12.1719 15.7767 12.4784 16.8975 12.4784C18.0184 12.4784 18.579 12.7658 18.579 13.4847C18.579 14.2031 17.8262 14.4905 16.8975 14.4905C15.9689 14.4905 15.2161 14.0401 15.2161 13.4845M17.0269 10.0929V10.5352M17.0269 15.0078V14.5655" stroke="#00E377" stroke-width="1.1" stroke-linecap="round"/>
</svg>
