<svg width="24" height="24" viewBox="0 0 24 24" fill="none" xmlns="http://www.w3.org/2000/svg">
<path d="M19.0501 22.219C19.0501 20.6632 17.807 18.4465 16.0726 17.9559M14.5838 22.219C14.5838 20.2456 12.5844 17.7527 10.1175 17.7527C7.6506 17.7527 5.65118 20.2456 5.65118 22.219" stroke="#373737" stroke-width="1.5" stroke-linecap="round" stroke-linejoin="round"/>
<path d="M10.1174 15.1472C11.3507 15.1472 12.3506 14.1474 12.3506 12.9141C12.3506 11.6807 11.3507 10.6809 10.1174 10.6809C8.88407 10.6809 7.88425 11.6807 7.88425 12.9141C7.88425 14.1474 8.88407 15.1472 10.1174 15.1472Z" stroke="#373737" stroke-width="1.5" stroke-linecap="round" stroke-linejoin="round"/>
<path d="M14.5836 15.1472C15.1759 15.1472 15.7439 14.9119 16.1627 14.4931C16.5815 14.0743 16.8168 13.5063 16.8168 12.9141C16.8168 12.3218 16.5815 11.7538 16.1627 11.335C15.7439 10.9162 15.1759 10.6809 14.5836 10.6809" stroke="#373737" stroke-width="1.5" stroke-linecap="round" stroke-linejoin="round"/>
<path d="M4.32019 16.7669V5.96405L13.6674 1.78101L20.381 6.6354V16.7669" stroke="#373737" stroke-width="1.5" stroke-linecap="round" stroke-linejoin="round"/>
<path d="M13.5911 2.04321V7.82711" stroke="#373737" stroke-width="1.5" stroke-linecap="round" stroke-linejoin="round"/>
</svg>
