<svg width="24" height="24" viewBox="0 0 24 24" fill="none" xmlns="http://www.w3.org/2000/svg">
<path d="M19.8964 13.578V7.52624C19.8964 6.42168 19.001 5.52625 17.8964 5.52625H2.88367C1.7791 5.52625 0.883667 6.42168 0.883667 7.52625V16.6836C0.883667 17.7881 1.7791 18.6836 2.88367 18.6836H15.6093" stroke="#00E377" stroke-width="1.5"/>
<path d="M12.5608 10.7893C12.5608 10.0063 11.5891 9.37236 10.3901 9.37236C9.19141 9.37236 8.21935 10.0067 8.21935 10.7893C8.21935 11.5719 8.81141 12.0036 10.3901 12.0036C11.9688 12.0036 12.7583 12.4084 12.7583 13.4209C12.7583 14.4327 11.6981 14.8375 10.3901 14.8375C9.08211 14.8375 8.02188 14.2031 8.02188 13.4205M10.5723 8.64368V9.2667M10.5723 15.5661V14.9431" stroke="#00E377" stroke-width="1.5" stroke-linecap="round"/>
<circle cx="19.4346" cy="17.6272" r="3.68175" stroke="#00E377" stroke-width="1.5"/>
<path d="M19.4346 15.9645V19.2899" stroke="#00E377" stroke-width="1.5" stroke-linecap="round" stroke-linejoin="round"/>
<path d="M21.0974 17.6272L17.7719 17.6272" stroke="#00E377" stroke-width="1.5" stroke-linecap="round" stroke-linejoin="round"/>
<path d="M2.37683 2.69116H17.9005" stroke="#00E377" stroke-width="1.5" stroke-linecap="round" stroke-linejoin="round"/>
<path d="M2.37683 21.309H14.6318" stroke="#00E377" stroke-width="1.5" stroke-linecap="round" stroke-linejoin="round"/>
</svg>
