<svg width="24" height="24" viewBox="0 0 24 24" fill="none" xmlns="http://www.w3.org/2000/svg">
<path d="M1.71982 3.70972V20.2901C1.71982 21.3946 2.61525 22.2901 3.71982 22.2901H20.2802C21.3847 22.2901 22.2802 21.3946 22.2802 20.2901V7.02444C22.2802 6.55882 22.1177 6.10779 21.8208 5.74911L20.2561 3.85891L18.8804 2.35823C18.5016 1.94499 17.9667 1.70972 17.4061 1.70972H3.71982C2.61525 1.70972 1.71982 2.60515 1.71982 3.70972Z" stroke="#373737" stroke-width="1.5"/>
<path d="M14.2504 6.89466C14.2504 6.02856 13.1755 5.32729 11.8491 5.32729C10.5232 5.32729 9.4479 6.02896 9.4479 6.89466C9.4479 7.76036 10.1028 8.23794 11.8491 8.23794C13.5954 8.23794 14.4688 8.6857 14.4688 9.80571C14.4688 10.9249 13.296 11.3727 11.8491 11.3727C10.4023 11.3727 9.22946 10.671 9.22946 9.80531M12.0506 4.52124V5.21041M12.0506 12.1787V11.4896" stroke="#373737" stroke-width="1.5" stroke-linecap="round"/>
<path d="M5.19675 15.0957L18.7705 15.0957" stroke="#373737" stroke-width="1.5" stroke-linecap="round" stroke-linejoin="round"/>
<path d="M5.19675 18.2505H14.7441" stroke="#373737" stroke-width="1.5" stroke-linecap="round" stroke-linejoin="round"/>
</svg>
