<svg width="24" height="24" viewBox="0 0 24 24" fill="none" xmlns="http://www.w3.org/2000/svg">
<path d="M10.6388 10C12.848 10 14.6388 8.20914 14.6388 6C14.6388 3.79086 12.848 2 10.6388 2C8.42969 2 6.63882 3.79086 6.63882 6C6.63882 8.20914 8.42969 10 10.6388 10Z" stroke="#373737" stroke-width="1.5"/>
<path d="M18.6388 17.5C18.6388 19.985 18.6388 22 10.6388 22C2.63882 22 2.63882 19.985 2.63882 17.5C2.63882 15.015 6.22082 13 10.6388 13C11.793 13 12.8901 13.1375 13.8813 13.385" stroke="#373737" stroke-width="1.5" stroke-linecap="round"/>
<path d="M16.1761 13.789L17.8334 15.3636L21.3613 11.8357" stroke="#373737" stroke-width="1.5" stroke-linecap="round" stroke-linejoin="round"/>
</svg>
