<svg width="77" height="96" viewBox="0 0 77 96" fill="none" xmlns="http://www.w3.org/2000/svg">
<mask id="mask0_6055_2459" style="mask-type:alpha" maskUnits="userSpaceOnUse" x="0" y="0" width="77" height="96">
<path d="M38.4 96C27.28 93.2 18.0992 86.8192 10.8576 76.8576C3.616 66.896 -0.00319788 55.8368 2.12014e-06 43.68V14.4L38.4 0L76.8 14.4V43.68C76.8 55.84 73.1808 66.9008 65.9424 76.8624C58.704 86.824 49.5232 93.2032 38.4 96Z" fill="#00E377"/>
</mask>
<g mask="url(#mask0_6055_2459)">
<path d="M38.4 96C27.28 93.2 18.0992 86.8192 10.8576 76.8576C3.616 66.896 -0.00319788 55.8368 2.12014e-06 43.68V14.4L38.4 0L76.8 14.4V43.68C76.8 55.84 73.1808 66.9008 65.9424 76.8624C58.704 86.824 49.5232 93.2032 38.4 96Z" fill="#00E377"/>
<path d="M38.4 89.5662C28.7705 87.1415 20.8203 81.616 14.5493 72.9896C8.27836 64.3632 5.14426 54.7863 5.14704 44.259V18.9036L38.4 6.4337L71.653 18.9036V44.259C71.653 54.7891 68.519 64.3674 62.2508 72.9937C55.9826 81.6201 48.0323 87.1443 38.4 89.5662Z" fill="#00E377"/>
<path d="M71.0087 19.3495V44.2587C71.0087 54.3262 68.1085 63.5058 62.3002 71.8137L61.7296 72.6149C55.5775 81.0815 47.804 86.4968 38.4003 88.8996C29.2944 86.5697 21.7154 81.4149 15.6553 73.3995L15.0701 72.611C9.07166 64.3595 5.98538 55.238 5.80069 45.2308L5.79189 44.2596V19.3495L38.3993 7.12155L71.0087 19.3495Z" stroke="black" stroke-opacity="0.09" stroke-width="1.28811"/>
<path d="M38.4134 33.3617C43.8193 33.3617 48.2015 37.744 48.2015 43.1499C48.2013 48.5557 43.8192 52.9381 38.4134 52.9381H24.246C20.9497 52.938 18.2781 50.2655 18.2781 46.9693V33.3617H38.4134Z" stroke="#373737" stroke-width="5.88773"/>
<path d="M48.7336 43.0627C54.1395 43.0627 58.5218 47.445 58.5218 52.8509C58.5216 58.2567 54.1394 62.6391 48.7336 62.6391H38.961C33.2379 62.6391 28.5984 57.9994 28.5983 52.2764V43.0627H48.7336Z" stroke="#373737" stroke-width="5.88773"/>
</g>
</svg>
