<svg width="24" height="24" viewBox="0 0 24 24" fill="none" xmlns="http://www.w3.org/2000/svg">
<path d="M1.71983 3.70984V20.2902C1.71983 21.3948 2.61525 22.2902 3.71982 22.2902H20.2802C21.3847 22.2902 22.2802 21.3948 22.2802 20.2902V7.02456C22.2802 6.55894 22.1177 6.10791 21.8208 5.74923L20.2561 3.85903L18.8804 2.35835C18.5016 1.94512 17.9667 1.70984 17.4061 1.70984H3.71983C2.61526 1.70984 1.71983 2.60527 1.71983 3.70984Z" stroke="#00E377" stroke-width="1.5"/>
<path d="M14.2504 6.89466C14.2504 6.02856 13.1755 5.32729 11.8491 5.32729C10.5232 5.32729 9.44791 6.02896 9.44791 6.89466C9.44791 7.76036 10.1028 8.23794 11.8491 8.23794C13.5954 8.23794 14.4688 8.6857 14.4688 9.80571C14.4688 10.9249 13.296 11.3727 11.8491 11.3727C10.4023 11.3727 9.22947 10.671 9.22947 9.80531M12.0506 4.52124V5.21041M12.0506 12.1787V11.4896" stroke="#00E377" stroke-width="1.5" stroke-linecap="round"/>
<path d="M5.19675 15.0958L18.7705 15.0958" stroke="#00E377" stroke-width="1.5" stroke-linecap="round" stroke-linejoin="round"/>
<path d="M5.19675 18.2505H14.7442" stroke="#00E377" stroke-width="1.5" stroke-linecap="round" stroke-linejoin="round"/>
</svg>
