<svg width="24" height="24" viewBox="0 0 24 24" fill="none" xmlns="http://www.w3.org/2000/svg">
<path d="M6.15088 1.3241V5.3241M14.1509 1.3241V5.3241" stroke="#00E377" stroke-width="1.5" stroke-linecap="round"/>
<path d="M19.1509 13.4316V5.08037C19.1509 4.11041 18.2554 3.3241 17.1509 3.3241H3.15088C2.04631 3.3241 1.15088 4.11041 1.15088 5.08037V17.3743C1.15088 18.3443 2.04631 19.1306 3.15088 19.1306H13.7367" stroke="#00E377" stroke-width="1.5"/>
<path d="M1.15088 9.3241H19.1509" stroke="#00E377" stroke-width="1.5"/>
<circle cx="18.3124" cy="18.1393" r="4.53667" stroke="#00E377" stroke-width="1.5"/>
<path d="M19.8536 17.2053C19.8536 16.6494 19.1637 16.1992 18.3124 16.1992C17.4613 16.1992 16.7712 16.6496 16.7712 17.2053C16.7712 17.7609 17.1915 18.0674 18.3124 18.0674C19.4333 18.0674 19.9938 18.3548 19.9938 19.0737C19.9938 19.7921 19.2411 20.0795 18.3124 20.0795C17.3837 20.0795 16.631 19.6291 16.631 19.0734M18.4417 15.6819V16.1242M18.4417 20.5968V20.1545" stroke="#00E377" stroke-width="1.1" stroke-linecap="round"/>
</svg>
