<svg width="20" height="20" viewBox="0 0 20 20" fill="none" xmlns="http://www.w3.org/2000/svg">
<path d="M10.0001 12.3412C11.293 12.3412 12.3411 11.2931 12.3411 10.0002C12.3411 8.70729 11.293 7.65918 10.0001 7.65918C8.70717 7.65918 7.65906 8.70729 7.65906 10.0002C7.65906 11.2931 8.70717 12.3412 10.0001 12.3412Z" stroke="white" stroke-width="1.5" stroke-linecap="round" stroke-linejoin="round"/>
<path d="M11.3773 2.31527C11.0909 2.19666 10.7273 2.19666 10 2.19666C9.27272 2.19666 8.90909 2.19666 8.6227 2.31527C8.43322 2.3937 8.26106 2.50871 8.11605 2.65372C7.97104 2.79873 7.85603 2.97089 7.7776 3.16037C7.7058 3.33439 7.67693 3.53806 7.66601 3.83381C7.66114 4.04761 7.60202 4.25667 7.49419 4.44135C7.38635 4.62604 7.23335 4.78028 7.04954 4.8896C6.86296 4.9942 6.65285 5.04965 6.43895 5.05074C6.22505 5.05184 6.01439 4.99853 5.82675 4.89585C5.56455 4.75695 5.37493 4.68047 5.18687 4.6555C4.77666 4.60156 4.36182 4.71271 4.03353 4.96452C3.7885 5.15414 3.6059 5.46862 3.24227 6.09835C2.87863 6.72808 2.69603 7.04256 2.65623 7.35079C2.62942 7.55403 2.6429 7.76057 2.69593 7.95859C2.74895 8.15662 2.84046 8.34226 2.96525 8.50491C3.08074 8.65474 3.24227 8.78037 3.49276 8.938C3.86186 9.16976 4.09908 9.56461 4.09908 10C4.09908 10.4355 3.86186 10.8303 3.49276 11.0613C3.24227 11.2197 3.07996 11.3453 2.96525 11.4952C2.84046 11.6578 2.74895 11.8435 2.69593 12.0415C2.6429 12.2395 2.62942 12.4461 2.65623 12.6493C2.69681 12.9567 2.87863 13.272 3.24149 13.9017C3.6059 14.5315 3.78772 14.8459 4.03353 15.0356C4.19618 15.1604 4.38182 15.2519 4.57985 15.3049C4.77788 15.3579 4.98441 15.3714 5.18765 15.3446C5.37493 15.3196 5.56455 15.2431 5.82675 15.1042C6.01439 15.0016 6.22505 14.9482 6.43895 14.9493C6.65285 14.9504 6.86296 15.0059 7.04954 15.1105C7.42644 15.329 7.6504 15.7309 7.66601 16.1663C7.67693 16.4628 7.70502 16.6657 7.7776 16.8397C7.85603 17.0292 7.97104 17.2014 8.11605 17.3464C8.26106 17.4914 8.43322 17.6064 8.6227 17.6848C8.90909 17.8034 9.27272 17.8034 10 17.8034C10.7273 17.8034 11.0909 17.8034 11.3773 17.6848C11.5668 17.6064 11.7389 17.4914 11.884 17.3464C12.029 17.2014 12.144 17.0292 12.2224 16.8397C12.2942 16.6657 12.3231 16.4628 12.334 16.1663C12.3496 15.7309 12.5736 15.3282 12.9505 15.1105C13.137 15.0059 13.3472 14.9504 13.5611 14.9493C13.7749 14.9482 13.9856 15.0016 14.1733 15.1042C14.4354 15.2431 14.6251 15.3196 14.8123 15.3446C15.0156 15.3714 15.2221 15.3579 15.4202 15.3049C15.6182 15.2519 15.8038 15.1604 15.9665 15.0356C16.2123 14.8467 16.3941 14.5315 16.7577 13.9017C17.1214 13.272 17.304 12.9575 17.3438 12.6493C17.3706 12.4461 17.3571 12.2395 17.3041 12.0415C17.2511 11.8435 17.1595 11.6578 17.0348 11.4952C16.9193 11.3453 16.7577 11.2197 16.5072 11.0621C16.3244 10.951 16.1729 10.7952 16.0668 10.6094C15.9608 10.4236 15.9037 10.2139 15.9009 10C15.9009 9.56461 16.1381 9.16976 16.5072 8.93878C16.7577 8.78037 16.92 8.65474 17.0348 8.50491C17.1595 8.34226 17.2511 8.15662 17.3041 7.95859C17.3571 7.76057 17.3706 7.55403 17.3438 7.35079C17.3032 7.04334 17.1214 6.72808 16.7585 6.09835C16.3941 5.46862 16.2123 5.15414 15.9665 4.96452C15.8038 4.83973 15.6182 4.74822 15.4202 4.6952C15.2221 4.64217 15.0156 4.62869 14.8123 4.6555C14.6251 4.68047 14.4354 4.75695 14.1725 4.89585C13.9849 4.9984 13.7744 5.05162 13.5607 5.05053C13.3469 5.04944 13.1369 4.99406 12.9505 4.8896C12.7667 4.78028 12.6136 4.62604 12.5058 4.44135C12.398 4.25667 12.3389 4.04761 12.334 3.83381C12.3231 3.53728 12.295 3.33439 12.2224 3.16037C12.144 2.97089 12.029 2.79873 11.884 2.65372C11.7389 2.50871 11.5668 2.3937 11.3773 2.31527Z" stroke="white" stroke-width="1.5" stroke-linecap="round" stroke-linejoin="round"/>
</svg>
