<svg width="16" height="16" viewBox="0 0 16 16" fill="none" xmlns="http://www.w3.org/2000/svg">
<g clip-path="url(#clip0_0_290)">
<path d="M2.28573 6.28576V12.5715M6.09487 6.28576V12.5715M9.90516 6.28576V12.5715M13.7143 6.28576V12.5715M14.7543 6.28576H1.24573C0.605727 6.28576 0.331442 5.58862 0.834299 5.25719L7.58858 0.834331C7.71329 0.760973 7.85533 0.72229 8.00001 0.72229C8.14469 0.72229 8.28674 0.760973 8.41144 0.834331L15.1657 5.25719C15.6686 5.58862 15.3943 6.28576 14.7543 6.28576ZM14.8572 12.5715H1.14287C0.991318 12.5715 0.845973 12.6317 0.738809 12.7388C0.631646 12.846 0.571442 12.9914 0.571442 13.1429V14.8572C0.571442 15.0087 0.631646 15.1541 0.738809 15.2613C0.845973 15.3684 0.991318 15.4286 1.14287 15.4286H14.8572C15.0087 15.4286 15.1541 15.3684 15.2612 15.2613C15.3684 15.1541 15.4286 15.0087 15.4286 14.8572V13.1429C15.4286 12.9914 15.3684 12.846 15.2612 12.7388C15.1541 12.6317 15.0087 12.5715 14.8572 12.5715Z" stroke="#373737" stroke-linecap="round" stroke-linejoin="round"/>
</g>
<defs>
<clipPath id="clip0_0_290">
<rect width="16" height="16" fill="white"/>
</clipPath>
</defs>
</svg>
