<svg width="24" height="24" viewBox="0 0 24 24" fill="none" xmlns="http://www.w3.org/2000/svg">
<path d="M19.7775 3.76538H4.2225C2.56565 3.76538 1.2225 5.10853 1.2225 6.76538V17.2345C1.2225 18.8914 2.56565 20.2345 4.2225 20.2345H8.45475H19.7775C21.4344 20.2345 22.7775 18.8914 22.7775 17.2345V6.76538C22.7775 5.10853 21.4344 3.76538 19.7775 3.76538Z" stroke="#373737" stroke-width="1.5"/>
<path d="M1.90085 15.8977L22.4218 15.8977" stroke="#373737" stroke-width="1.5" stroke-linecap="round" stroke-linejoin="round"/>
<path d="M7.02686 9.01904C7.76434 9.01904 8.36218 8.4212 8.36218 7.68372C8.36218 6.94623 7.76434 6.34839 7.02686 6.34839C6.28937 6.34839 5.69153 6.94623 5.69153 7.68372C5.69153 8.4212 6.28937 9.01904 7.02686 9.01904Z" stroke="#373737" stroke-width="1.5"/>
<path d="M9.69751 12.5301C9.69751 13.3596 9.69751 14.0323 7.02686 14.0323C4.3562 14.0323 4.3562 13.3596 4.3562 12.5301C4.3562 11.7005 5.55199 11.0278 7.02686 11.0278C8.50172 11.0278 9.69751 11.7005 9.69751 12.5301Z" stroke="#373737" stroke-width="1.5"/>
<path d="M15.6456 7.72876H19.8382" stroke="#373737" stroke-width="1.5" stroke-linecap="round" stroke-linejoin="round"/>
</svg>
