<svg width="37" height="37" viewBox="0 0 37 37" fill="none" xmlns="http://www.w3.org/2000/svg">
<path d="M18.5 1.49011C9.10576 1.49011 1.49011 9.1059 1.49011 18.5C1.49011 27.8948 9.1059 35.5099 18.5 35.5099C27.8949 35.5099 35.5099 27.8948 35.5099 18.5C35.5099 9.10656 27.8949 1.49104 18.4997 1.49104L18.5 1.49011ZM26.3005 26.0234C25.9958 26.5231 25.3417 26.6815 24.842 26.3748C20.8483 23.9353 15.8208 23.3828 9.89991 24.7356C9.62573 24.798 9.33798 24.749 9.09994 24.5993C8.8619 24.4496 8.69306 24.2115 8.63055 23.9373C8.59942 23.8016 8.59536 23.6611 8.6186 23.5238C8.64184 23.3865 8.69192 23.2552 8.76598 23.1372C8.84004 23.0193 8.93662 22.9172 9.05019 22.8366C9.16377 22.7561 9.29212 22.6987 9.42789 22.6678C15.9076 21.1874 21.4654 21.8248 25.9492 24.565C26.4488 24.8717 26.6072 25.5238 26.3005 26.0234ZM28.3825 21.3918C27.9984 22.0157 27.182 22.2128 26.5585 21.8289C21.9862 19.0185 15.0166 18.2046 9.60862 19.8462C8.90723 20.058 8.1665 19.6628 7.95361 18.9626C7.74231 18.2612 8.13779 17.5218 8.83799 17.3087C15.0154 15.4341 22.6951 16.3421 27.9458 19.5687C28.5693 19.9528 28.7664 20.7691 28.3825 21.3918ZM28.5612 16.5689C23.079 13.3125 14.0341 13.013 8.79998 14.6018C7.95946 14.8567 7.07056 14.3822 6.81594 13.5416C6.56119 12.7007 7.03521 11.8125 7.8764 11.5569C13.8847 9.73287 23.8733 10.0854 30.1849 13.8324C30.9426 14.281 31.1903 15.2575 30.7414 16.0124C30.2946 16.7686 29.3155 17.0178 28.562 16.5689H28.5612Z" fill="#1ED760"/>
</svg>
