<svg width="24" height="24" viewBox="0 0 24 24" fill="none" xmlns="http://www.w3.org/2000/svg">
<path d="M12 20.5716C13.2706 20.5716 14.5288 20.3214 15.7026 19.8351C16.8765 19.3489 17.9432 18.6362 18.8416 17.7377C19.7401 16.8393 20.4528 15.7727 20.939 14.5988C21.4252 13.4249 21.6755 12.1667 21.6755 10.8961C21.6755 9.6255 21.4252 8.36733 20.939 7.19344C20.4528 6.01955 19.7401 4.95293 18.8416 4.05447C17.9432 3.15602 16.8765 2.44333 15.7026 1.95708C14.5288 1.47084 13.2706 1.22058 12 1.22058M12 20.5716C10.7294 20.5716 9.47121 20.3214 8.29732 19.8351M12 20.5716C14.9682 20.5716 16.2368 15.0211 16.2368 10.8961C16.2368 6.77111 14.9682 1.22058 12 1.22058M12 20.5716C9.03175 20.5716 7.76318 15.0211 7.76318 10.8961C7.76318 6.77111 9.03175 1.22058 12 1.22058M12 1.22058C10.7294 1.22058 9.47121 1.47084 8.29732 1.95708C7.12343 2.44333 6.05681 3.15602 5.15836 4.05447C4.2599 4.95293 3.54721 6.01955 3.06097 7.19344C2.57472 8.36733 2.32446 9.6255 2.32446 10.8961C2.32446 12.1667 2.57472 13.4249 3.06097 14.5988C3.21578 14.9725 3.39355 15.3354 3.59297 15.6855M2.86199 7.67093H21.138M2.86199 14.1213H21.138" stroke="#00E377" stroke-width="1.5" stroke-linecap="round"/>
<path d="M1.68289 21.9822L5.83328 17.8318" stroke="#00E377" stroke-width="1.5" stroke-linecap="round" stroke-linejoin="round"/>
<path d="M2.80405 17.4953L6.16991 17.4953V20.8611" stroke="#00E377" stroke-width="1.5" stroke-linecap="round" stroke-linejoin="round"/>
</svg>
